<svg width="71" height="30" viewBox="0 0 71 30" fill="none" xmlns="http://www.w3.org/2000/svg">
<path d="M13.5268 10.1196H5.46773C5.05364 10.1196 4.71525 10.4579 4.71525 10.8719V15.0385C4.71525 15.4525 5.05364 15.7908 5.46773 15.7908H13.2552C13.6693 15.7908 14.0077 16.1291 14.0077 16.5431V19.5479C14.0077 19.9619 13.6693 20.3002 13.2552 20.3002H5.46773C5.05364 20.3002 4.71525 20.6385 4.71525 21.0525V28.7714C4.71525 29.1854 4.37685 29.5237 3.96277 29.5237H0.752481C0.338394 29.5192 0 29.1854 0 28.7714V6.36253C0 5.94854 0.338394 5.61023 0.752481 5.61023H13.5313C13.9454 5.61023 14.2838 5.94854 14.2838 6.36253V9.3673C14.2793 9.78574 13.9454 10.1196 13.5268 10.1196Z" fill="white"/>
<path d="M30.4374 30C26.8398 30 23.8655 28.8025 21.519 26.4121C19.1725 24.0216 18.0015 21.0747 18.0015 17.567C18.0015 14.0369 19.1725 11.0856 21.519 8.70402C23.8655 6.32691 26.8353 5.13391 30.4374 5.13391C32.6014 5.13391 34.6006 5.64138 36.435 6.65187C38.0112 7.52437 39.2891 8.6595 40.2687 10.0573C40.5269 10.4267 40.4156 10.9431 40.0238 11.1701L37.3033 12.7504C36.956 12.9507 36.5196 12.8484 36.2881 12.5234C35.7315 11.7355 35.0147 11.0989 34.1375 10.6137C33.0422 10.0128 31.8133 9.71005 30.4463 9.71005C28.1221 9.71005 26.2476 10.4401 24.8272 11.8957C23.4024 13.3514 22.69 15.2433 22.69 17.567C22.69 19.8684 23.4024 21.7469 24.8272 23.2026C26.252 24.6582 28.1221 25.3882 30.4463 25.3882C31.8133 25.3882 33.0466 25.0855 34.1509 24.4846C35.0325 24.0038 35.7449 23.3762 36.2881 22.6105C36.5196 22.2811 36.9604 22.1787 37.3077 22.379L40.0282 23.9549C40.42 24.1819 40.5358 24.6983 40.2731 25.0677C39.298 26.47 38.0246 27.6051 36.4573 28.4776C34.6273 29.4925 32.6236 30 30.4374 30Z" fill="white"/>
<path d="M56.6538 20.8922L54.8594 23.937C54.7214 24.173 54.7214 24.4668 54.8594 24.6983L57.5131 29.1542C57.6467 29.3812 57.8916 29.5192 58.1543 29.5192H61.7742C62.353 29.5192 62.7137 28.8871 62.4154 28.3886L57.9361 20.8878C57.6511 20.4026 56.9432 20.4026 56.6538 20.8922Z" fill="url(#paint0_linear)"/>
<path d="M57.9445 13.5695L62.0008 6.75872C62.3036 6.25125 61.9385 5.61023 61.3463 5.61023H57.7843C57.5171 5.61023 57.2678 5.75268 57.1297 5.9797L54.85 9.80354C54.7075 10.0439 54.7075 10.3422 54.85 10.5826L56.6355 13.5651C56.9383 14.0636 57.6507 14.0636 57.9445 13.5695Z" fill="url(#paint1_linear)"/>
<path d="M53.097 12.7682L49.0407 5.98416C48.9027 5.75713 48.6578 5.61469 48.3906 5.61469H44.8286C44.2408 5.61469 43.8757 6.2557 44.1785 6.76317L50.1984 16.8681C50.3408 17.1085 50.3408 17.4067 50.1984 17.6426L43.7956 28.3752C43.4928 28.8827 43.8579 29.5237 44.4457 29.5237H48.0077C48.2749 29.5237 48.5242 29.3813 48.6578 29.1542L53.0792 21.738L55.5192 17.6026C55.6616 17.3622 55.6572 17.0684 55.5147 16.828L53.097 12.7682Z" fill="url(#paint2_linear)"/>
<path d="M66.7934 5.61462C66.4283 5.60572 66.1077 5.48553 65.845 5.22289C64.8788 4.24801 63.9081 3.28204 62.933 2.31161C62.2117 1.59047 62.4967 0.370756 63.4718 0.0680536C63.9838 -0.087749 64.4558 0.0235386 64.8387 0.406368C65.8049 1.36344 66.7533 2.32051 67.7062 3.27759C67.9689 3.54022 68.1158 3.85183 68.1336 4.22576C68.1603 4.84451 67.7151 5.42766 67.1095 5.56566C67.0116 5.58792 66.9002 5.59682 66.7934 5.61462Z" fill="white"/>
<path d="M69.4554 0.00579834C70.1946 0.00579834 70.7957 0.597848 70.7957 1.3457C70.7957 2.09355 70.2035 2.69451 69.4554 2.70341C68.7163 2.71231 68.1063 2.09355 68.0974 1.3546C68.1063 0.6023 68.7074 0.00579834 69.4554 0.00579834Z" fill="white"/>
<defs>
<linearGradient id="paint0_linear" x1="58.8262" y1="27.6026" x2="57.4945" y2="19.9458" gradientUnits="userSpaceOnUse">
<stop stop-color="white"/>
<stop offset="1" stop-color="#ADADAD"/>
</linearGradient>
<linearGradient id="paint1_linear" x1="58.9496" y1="5.74863" x2="56.9383" y2="15.5925" gradientUnits="userSpaceOnUse">
<stop stop-color="white"/>
<stop offset="1" stop-color="#ADADAD"/>
</linearGradient>
<linearGradient id="paint2_linear" x1="43.3951" y1="17.5666" x2="50.6" y2="17.5666" gradientUnits="userSpaceOnUse">
<stop stop-color="white"/>
<stop offset="1" stop-color="#ADADAD"/>
</linearGradient>
</defs>
</svg>
