<svg width="71" height="30" viewBox="0 0 71 30" fill="none" xmlns="http://www.w3.org/2000/svg">
<path d="M13.5268 10.1196H5.46773C5.05364 10.1196 4.71525 10.4579 4.71525 10.8719V15.0385C4.71525 15.4525 5.05364 15.7908 5.46773 15.7908H13.2552C13.6693 15.7908 14.0077 16.1291 14.0077 16.5431V19.5479C14.0077 19.9619 13.6693 20.3002 13.2552 20.3002H5.46773C5.05364 20.3002 4.71525 20.6385 4.71525 21.0525V28.7714C4.71525 29.1854 4.37686 29.5237 3.96277 29.5237H0.752481C0.338394 29.5193 0 29.1854 0 28.7714V6.36253C0 5.94854 0.338394 5.61023 0.752481 5.61023H13.5313C13.9454 5.61023 14.2838 5.94854 14.2838 6.36253V9.3673C14.2793 9.78574 13.9454 10.1196 13.5268 10.1196Z" fill="#3A449C"/>
<path d="M30.4376 30C26.8399 30 23.8656 28.8026 21.5191 26.4121C19.1726 24.0216 18.0016 21.0747 18.0016 17.567C18.0016 14.0369 19.1726 11.0856 21.5191 8.70402C23.8656 6.32691 26.8354 5.13391 30.4376 5.13391C32.6015 5.13391 34.6007 5.64138 36.4351 6.65187C38.0113 7.52437 39.2892 8.6595 40.2688 10.0573C40.527 10.4267 40.4157 10.9431 40.0239 11.1702L37.3034 12.7504C36.9561 12.9508 36.5197 12.8484 36.2882 12.5234C35.7316 11.7355 35.0148 11.0989 34.1376 10.6137C33.0423 10.0128 31.8134 9.71006 30.4465 9.71006C28.1222 9.71006 26.2477 10.4401 24.8273 11.8957C23.4025 13.3514 22.6901 15.2433 22.6901 17.567C22.6901 19.8684 23.4025 21.7469 24.8273 23.2026C26.2522 24.6582 28.1222 25.3883 30.4465 25.3883C31.8134 25.3883 33.0468 25.0856 34.151 24.4846C35.0326 24.0038 35.745 23.3762 36.2882 22.6105C36.5197 22.2811 36.9605 22.1787 37.3078 22.379L40.0284 23.9549C40.4202 24.1819 40.5359 24.6983 40.2732 25.0677C39.2981 26.47 38.0247 27.6051 36.4574 28.4776C34.6274 29.4925 32.6238 30 30.4376 30Z" fill="#3A449C"/>
<path d="M56.6542 20.8922L54.8598 23.9371C54.7218 24.173 54.7218 24.4668 54.8598 24.6983L57.5135 29.1542C57.6471 29.3812 57.892 29.5192 58.1547 29.5192H61.7746C62.3535 29.5192 62.7141 28.8871 62.4158 28.3886L57.9365 20.8878C57.6516 20.4026 56.9436 20.4026 56.6542 20.8922Z" fill="url(#paint0_linear)"/>
<path d="M57.9455 13.5695L62.0018 6.75872C62.3046 6.25125 61.9395 5.61023 61.3473 5.61023H57.7852C57.5181 5.61023 57.2687 5.75268 57.1307 5.9797L54.851 9.80355C54.7085 10.0439 54.7085 10.3422 54.851 10.5826L56.6365 13.5651C56.9392 14.0636 57.6517 14.0636 57.9455 13.5695Z" fill="url(#paint1_linear)"/>
<path d="M53.0968 12.7683L49.0405 5.98416C48.9025 5.75713 48.6576 5.61469 48.3904 5.61469H44.8284C44.2407 5.61469 43.8756 6.2557 44.1783 6.76317L50.1982 16.8681C50.3407 17.1085 50.3407 17.4067 50.1982 17.6426L43.7954 28.3752C43.4926 28.8827 43.8577 29.5237 44.4455 29.5237H48.0075C48.2747 29.5237 48.524 29.3813 48.6576 29.1542L53.079 21.738L55.519 17.6026C55.6615 17.3622 55.657 17.0684 55.5145 16.828L53.0968 12.7683Z" fill="url(#paint2_linear)"/>
<path d="M66.7927 5.61463C66.4275 5.60572 66.107 5.48553 65.8443 5.2229C64.8781 4.24802 63.9074 3.28204 62.9323 2.31161C62.211 1.59047 62.4959 0.370756 63.4711 0.0680536C63.9831 -0.087749 64.4551 0.0235386 64.838 0.406368C65.8042 1.36344 66.7526 2.32051 67.7054 3.27759C67.9681 3.54023 68.1151 3.85183 68.1329 4.22576C68.1596 4.84452 67.7143 5.42766 67.1088 5.56566C67.0108 5.58792 66.8995 5.59682 66.7927 5.61463Z" fill="#DA1A5F"/>
<path d="M69.4556 0.0057373C70.1947 0.0057373 70.7958 0.597787 70.7958 1.34564C70.7958 2.09349 70.2036 2.69445 69.4556 2.70335C68.7164 2.71225 68.1064 2.09349 68.0975 1.35454C68.1064 0.602239 68.7075 0.0057373 69.4556 0.0057373Z" fill="#DA1A5F"/>
<defs>
<linearGradient id="paint0_linear" x1="58.8267" y1="27.6026" x2="57.4949" y2="19.9458" gradientUnits="userSpaceOnUse">
<stop stop-color="#1A88C9"/>
<stop offset="1" stop-color="#3A449C"/>
</linearGradient>
<linearGradient id="paint1_linear" x1="58.9506" y1="5.74863" x2="56.9393" y2="15.5925" gradientUnits="userSpaceOnUse">
<stop stop-color="#1A88C9"/>
<stop offset="1" stop-color="#3A449C"/>
</linearGradient>
<linearGradient id="paint2_linear" x1="43.3949" y1="17.5666" x2="50.5998" y2="17.5666" gradientUnits="userSpaceOnUse">
<stop stop-color="#1A88C9"/>
<stop offset="1" stop-color="#3A449C"/>
</linearGradient>
</defs>
</svg>
